<svg width="426" height="238" viewBox="0 0 426 238" fill="none" xmlns="http://www.w3.org/2000/svg">
<path fill-rule="evenodd" clip-rule="evenodd" d="M101.643 239.821C101.192 191.66 139.869 152.252 188.03 151.801C236.192 151.35 275.599 190.027 276.05 238.188C276.501 286.35 237.825 325.757 189.663 326.208C141.502 326.659 102.094 287.983 101.643 239.821ZM98.6227 239.85C98.1561 190.02 138.173 149.247 188.002 148.781C237.832 148.314 278.605 188.331 279.071 238.16C279.538 287.99 239.521 328.763 189.692 329.229C139.862 329.696 99.0893 289.679 98.6227 239.85Z" fill="#69A1F8"/>
<path d="M213.202 195.894C189.392 182.443 159.186 190.84 145.735 214.65C132.284 238.46 140.682 268.666 164.492 282.117C188.302 295.568 218.508 287.17 231.959 263.361C245.41 239.551 237.012 209.345 213.202 195.894Z" fill="#69A1F8"/>
<path opacity="0.9" fill-rule="evenodd" clip-rule="evenodd" d="M57.6314 240.234C56.9528 167.766 115.15 108.468 187.618 107.79C260.086 107.111 319.384 165.308 320.062 237.776C320.741 310.245 262.544 369.542 190.076 370.22C117.607 370.899 58.31 312.702 57.6314 240.234ZM54.6107 240.262C53.9165 166.126 113.453 105.463 187.59 104.769C261.726 104.075 322.389 163.612 323.083 237.748C323.777 311.885 264.24 372.547 190.104 373.241C115.967 373.935 55.305 314.399 54.6107 240.262Z" fill="#69A1F8"/>
<path opacity="0.75" fill-rule="evenodd" clip-rule="evenodd" d="M4.19274 239.005C4.19274 137.024 86.8645 54.3524 188.845 54.3524C290.826 54.3524 373.498 137.024 373.498 239.005C373.498 340.986 290.826 423.657 188.845 423.657C86.8645 423.657 4.19275 340.986 4.19274 239.005ZM1.1719 239.005C1.17189 135.356 85.1961 51.3316 188.845 51.3316C292.494 51.3316 376.519 135.356 376.519 239.005C376.519 342.654 292.494 426.678 188.845 426.678C85.1961 426.678 1.1719 342.654 1.1719 239.005Z" fill="#69A1F8"/>
<path opacity="0.4" fill-rule="evenodd" clip-rule="evenodd" d="M-46.3179 238.21C-46.3179 108.706 58.6657 3.72264 188.169 3.72264C317.673 3.72263 422.657 108.706 422.657 238.21C422.657 367.714 317.673 472.697 188.169 472.697C58.6657 472.697 -46.3179 367.714 -46.3179 238.21ZM-49.3388 238.21C-49.3388 107.038 56.9973 0.701798 188.169 0.701793C319.342 0.701787 425.678 107.038 425.678 238.21C425.678 369.382 319.342 475.718 188.169 475.718C56.9973 475.718 -49.3387 369.382 -49.3388 238.21Z" fill="#69A1F8"/>
<path d="M80.5891 163.118C78.3626 161.86 77.5773 159.036 78.8352 156.809C80.093 154.583 82.9177 153.797 85.1442 155.055C87.3708 156.313 88.1561 159.138 86.8982 161.364C85.6404 163.591 82.8157 164.376 80.5891 163.118Z" fill="#8EB9FA"/>
<path d="M367.143 205.916C362.971 203.559 361.44 198.373 363.723 194.332C366.006 190.291 371.238 188.925 375.41 191.282C379.581 193.638 381.112 198.825 378.829 202.866C376.546 206.907 371.314 208.272 367.143 205.916Z" fill="#8EB9FA"/>
<path d="M263.761 16.7518C263.761 21.2008 267.368 24.8074 271.817 24.8074C276.265 24.8074 279.872 21.2008 279.872 16.7518C279.872 12.3029 276.265 8.69629 271.817 8.69629C267.368 8.69629 263.761 12.3029 263.761 16.7518Z" fill="#142683"/>
</svg>
